<svg width="122" height="21" viewBox="0 0 122 21" fill="none" xmlns="http://www.w3.org/2000/svg">
<path d="M11.2642 11.3589H5.55925C5.30839 11.3589 5.18297 11.4677 5.18297 11.6855C5.18297 12.2097 5.46619 12.7056 6.03263 13.1734C6.60717 13.6331 7.22217 13.8629 7.87762 13.8629C8.26604 13.8629 8.69492 13.7903 9.16426 13.6452C9.64169 13.4919 10.0342 13.3065 10.3417 13.0887C10.6168 12.8952 10.8353 12.7984 10.9971 12.7984C11.2075 12.7984 11.4139 12.9274 11.6162 13.1855C11.8185 13.4435 11.9196 13.7097 11.9196 13.9839C11.9196 14.5645 11.5555 15.125 10.8272 15.6653C9.54054 16.625 8.05565 17.1048 6.3725 17.1048C4.67317 17.1048 3.24896 16.6129 2.09989 15.629C1.54154 15.1452 1.08029 14.5605 0.716148 13.875C0.238716 12.9637 0 12.004 0 10.996C0 9.64113 0.412695 8.42339 1.23809 7.34274C1.95019 6.40726 2.8565 5.70968 3.95702 5.25C4.78241 4.90323 5.67658 4.72984 6.63954 4.72984C8.17703 4.72984 9.4839 5.16532 10.5601 6.03629C11.1023 6.47177 11.5393 6.9879 11.8711 7.58468C12.2514 8.2621 12.4415 8.92339 12.4415 9.56855C12.4415 10.0927 12.3323 10.5242 12.1138 10.8629C11.8953 11.1935 11.6121 11.3589 11.2642 11.3589ZM5.87484 9.09677H7.10079C7.61868 9.09677 7.87762 8.85887 7.87762 8.38306C7.87762 7.94758 7.7522 7.59274 7.50134 7.31855C7.25049 7.04435 6.92276 6.90726 6.51816 6.90726C6.065 6.90726 5.70895 7.08468 5.45 7.43952C5.20724 7.77016 5.08586 8.10484 5.08586 8.44355C5.08586 8.68548 5.14251 8.85484 5.2558 8.95161C5.37718 9.04839 5.58352 9.09677 5.87484 9.09677Z" fill="white"/>
<path d="M20.1614 4.71774C21.5694 4.71774 22.763 5.07258 23.7421 5.78226C24.26 6.16129 24.6201 6.59677 24.8224 7.08871C25.0328 7.57258 25.138 8.24194 25.138 9.09677L25.1137 10.8992C25.1137 12.1492 25.2027 12.9597 25.3808 13.3306C25.4698 13.5081 25.5547 13.621 25.6357 13.6694C25.7166 13.7177 25.8865 13.7621 26.1455 13.8024C26.4044 13.8427 26.5339 14.0121 26.5339 14.3105C26.5339 14.6976 26.3761 15.1008 26.0605 15.5202C25.753 15.9395 25.3524 16.2903 24.8588 16.5726C24.2519 16.9274 23.6167 17.1048 22.9531 17.1048C22.1035 17.1048 21.4318 16.8145 20.9382 16.2339C20.7683 16.0242 20.6105 15.9194 20.4648 15.9194C20.303 15.9194 20.0885 16.0202 19.8215 16.2218C19.0123 16.8105 18.0939 17.1048 17.0662 17.1048C16.0061 17.1048 15.1483 16.879 14.4929 16.4274C14.064 16.129 13.7241 15.7419 13.4733 15.2661C13.2224 14.7823 13.097 14.2782 13.097 13.754C13.097 12.9153 13.4369 12.1734 14.1166 11.5282C15.1767 10.5121 16.7627 10 18.8747 9.99194C19.3441 9.99194 19.6394 9.94758 19.7608 9.85887C19.8822 9.7621 19.9429 9.54435 19.9429 9.20564C19.9429 8.35081 19.8539 7.73387 19.6759 7.35484C19.4978 6.96774 19.2065 6.77419 18.8019 6.77419C18.5591 6.77419 18.3407 6.84677 18.1465 6.99194C17.9603 7.1371 17.7257 7.40323 17.4424 7.79032C16.7222 8.81452 15.9697 9.32661 15.1848 9.32661C14.7882 9.32661 14.4646 9.20968 14.2137 8.97581C13.9629 8.74194 13.8374 8.43548 13.8374 8.05645C13.8374 7.66935 13.9912 7.28226 14.2987 6.89516C14.6143 6.50806 15.0391 6.16935 15.5732 5.87903C17.0378 5.10484 18.5672 4.71774 20.1614 4.71774ZM19.3481 11.7218C18.9921 11.7218 18.6805 11.8669 18.4135 12.1573C18.1545 12.4476 18.0251 12.7944 18.0251 13.1976C18.0251 13.5847 18.1181 13.8992 18.3042 14.1411C18.4904 14.375 18.7372 14.4919 19.0447 14.4919C19.692 14.4919 20.0157 13.9476 20.0157 12.8589C20.0157 12.4153 19.9672 12.1169 19.8701 11.9637C19.781 11.8105 19.6071 11.7298 19.3481 11.7218Z" fill="white"/>
<path d="M32.1902 4.72984C32.5948 4.72984 33.2543 4.81855 34.1687 4.99597C34.3549 5.02823 34.5086 5.04435 34.63 5.04435C34.7676 5.04435 35.0346 4.97177 35.4311 4.82661C35.6172 4.75403 35.775 4.71774 35.9045 4.71774C36.2767 4.71774 36.653 4.95565 37.0333 5.43145C37.3408 5.81048 37.5917 6.22581 37.7859 6.67742C37.9801 7.12903 38.0772 7.52016 38.0772 7.85081C38.0772 8.17339 37.9639 8.44355 37.7373 8.66129C37.5108 8.87097 37.2275 8.97581 36.8877 8.97581C36.6044 8.97581 36.3495 8.90726 36.123 8.77016C35.9045 8.63306 35.5484 8.33064 35.0548 7.8629C34.5369 7.3629 34.108 7.1129 33.7682 7.1129C33.5416 7.1129 33.3433 7.19758 33.1734 7.36694C33.0116 7.52823 32.9307 7.72177 32.9307 7.94758C32.9307 8.34274 33.311 8.71371 34.0716 9.06048C35.4392 9.67339 36.4871 10.3427 37.2154 11.0685C37.8304 11.6815 38.1379 12.4315 38.1379 13.3185C38.1379 14.4395 37.6443 15.375 36.657 16.125C35.8074 16.7782 34.7676 17.1048 33.5376 17.1048C33.222 17.1048 32.6474 17.0524 31.8139 16.9476C31.029 16.8589 30.588 16.8145 30.4909 16.8145C30.3857 16.8145 30.2643 16.8266 30.1268 16.8508C29.8921 16.8831 29.7221 16.8992 29.617 16.8992C29.2366 16.8992 28.9372 16.8024 28.7187 16.6089C28.387 16.3105 28.0795 15.8427 27.7962 15.2056C27.513 14.5605 27.3714 14.0081 27.3714 13.5484C27.3714 12.8065 27.6627 12.4355 28.2453 12.4355C28.4719 12.4355 28.6783 12.5121 28.8644 12.6653C29.0586 12.8105 29.4592 13.2056 30.0661 13.8508C30.3978 14.2056 30.673 14.4516 30.8915 14.5887C31.1099 14.7177 31.3446 14.7823 31.5955 14.7823C31.8625 14.7823 32.0769 14.7137 32.2388 14.5766C32.4006 14.4315 32.4815 14.2419 32.4815 14.0081C32.4815 13.6452 32.17 13.3145 31.5469 13.0161C30.2441 12.379 29.3014 11.7218 28.7187 11.0444C28.1442 10.3669 27.8569 9.58468 27.8569 8.69758C27.8569 7.7379 28.1523 6.91129 28.743 6.21774C29.5846 5.22581 30.7337 4.72984 32.1902 4.72984Z" fill="white"/>
<path d="M50.7494 10.6815L49.1471 15.0726C48.7506 16.1613 48.3501 17.0484 47.9455 17.7339C47.549 18.4274 47.0958 19.0161 46.586 19.5C45.534 20.5 44.2676 21 42.7868 21C41.5892 21 40.6181 20.6855 39.8736 20.0565C39.2991 19.5726 39.0118 18.9556 39.0118 18.2056C39.0118 17.5847 39.2101 17.0645 39.6066 16.6452C40.0112 16.2177 40.5048 16.004 41.0875 16.004C41.6701 16.004 42.1394 16.1976 42.4955 16.5847C42.6654 16.7621 42.7787 16.9194 42.8353 17.0565C42.892 17.1935 42.9769 17.496 43.0902 17.9637C43.1793 18.3185 43.3816 18.496 43.6971 18.496C43.948 18.496 44.1584 18.3871 44.3283 18.1694C44.4983 17.9516 44.5832 17.6815 44.5832 17.3589C44.5832 16.9798 44.3728 16.3468 43.952 15.4597L41.0268 9.25403C40.7193 8.60887 40.4886 8.20564 40.3349 8.04435C40.1811 7.88306 39.8413 7.68548 39.3153 7.45161C39.1534 7.3871 39.0118 7.2621 38.8905 7.07661C38.7772 6.88306 38.7205 6.69758 38.7205 6.52016C38.7205 5.80242 39.4367 5.31452 40.869 5.05645C41.8238 4.8871 42.9122 4.80242 44.1341 4.80242C44.9919 4.80242 45.6676 4.89113 46.1612 5.06855C46.8247 5.30242 47.1565 5.70161 47.1565 6.26613C47.1565 6.46774 47.0634 6.70564 46.8773 6.97984C46.6993 7.2379 46.6103 7.46774 46.6103 7.66935C46.6103 7.8629 46.6507 8.06452 46.7317 8.27419C46.8207 8.48387 47.0028 8.83871 47.2779 9.33871C47.5854 9.90323 47.8565 10.1855 48.0911 10.1855C48.342 10.1855 48.6009 9.93952 48.868 9.44758C49.135 8.94758 49.2685 8.46774 49.2685 8.00806C49.2685 7.6371 49.1674 7.33468 48.9651 7.10081C48.6576 6.7379 48.5038 6.42742 48.5038 6.16935C48.5038 5.75806 48.779 5.43145 49.3292 5.18952C49.8795 4.93952 50.6159 4.81452 51.5384 4.81452C53.2539 4.81452 54.1116 5.22581 54.1116 6.04839C54.1116 6.34677 54.0226 6.58871 53.8446 6.77419C53.6747 6.95161 53.3591 7.12097 52.8978 7.28226C52.5094 7.42742 52.2019 7.66935 51.9753 8.00806C51.6193 8.54839 51.2106 9.43952 50.7494 10.6815Z" fill="white"/>
<path d="M59.8165 0C62.3413 0 63.6036 0.520161 63.6036 1.56048C63.6036 1.84274 63.5389 2.07258 63.4094 2.25C63.2799 2.42742 63.0331 2.625 62.669 2.84274C62.3534 3.03629 62.1511 3.29032 62.0621 3.60484C61.9812 3.91935 61.9407 4.55645 61.9407 5.51613C61.9407 6.08064 62.0459 6.42742 62.2563 6.55645C62.3777 6.6371 62.5597 6.68548 62.8025 6.70161C63.0534 6.71774 63.636 6.72581 64.5504 6.72581C65.3839 6.72581 65.9018 6.68145 66.1041 6.59274C66.3064 6.50403 66.4075 6.28226 66.4075 5.92742C66.4075 4.8629 66.359 4.12097 66.2619 3.70161C66.1648 3.28226 65.9746 2.99597 65.6914 2.84274C65.3353 2.64113 65.1007 2.47177 64.9874 2.33468C64.8741 2.18952 64.8174 2 64.8174 1.76613C64.8174 1.43548 64.9429 1.1371 65.1937 0.870968C65.4446 0.596774 65.7723 0.41129 66.1769 0.314516C67.0185 0.112903 68.0745 0.0120968 69.3449 0.0120968C70.8339 0.0120968 71.9304 0.149194 72.6344 0.423387C73.3465 0.689516 73.7025 1.10887 73.7025 1.68145C73.7025 2.16532 73.4517 2.52823 72.95 2.77016C72.6344 2.91532 72.428 3.05645 72.3309 3.19355C72.2338 3.32258 72.1569 3.56855 72.1003 3.93145C72.0679 4.13306 72.0275 5.02823 71.9789 6.61694C71.9304 8.20564 71.9061 9.46774 71.9061 10.4032C71.9061 12.0403 71.9668 13.0806 72.0881 13.5242C72.1529 13.7661 72.2257 13.9274 72.3066 14.0081C72.3876 14.0887 72.6425 14.25 73.0713 14.4919C73.3788 14.6613 73.5326 14.9194 73.5326 15.2661C73.5326 15.879 73.1644 16.3266 72.428 16.6089C71.6997 16.8831 70.5142 17.0202 68.8716 17.0202C67.4312 17.0202 66.3671 16.879 65.6792 16.5968C65.0561 16.3387 64.7446 15.9395 64.7446 15.3992C64.7446 14.9395 64.9833 14.5806 65.4607 14.3226C65.6954 14.1935 65.8532 14.0645 65.9341 13.9355C66.0231 13.8065 66.1081 13.5685 66.189 13.2218C66.3347 12.5444 66.4075 11.7137 66.4075 10.7298C66.4075 10.2218 66.3306 9.90726 66.1769 9.78629C66.0312 9.66532 65.6428 9.60484 65.0116 9.60484C63.5632 9.60484 62.6407 9.68548 62.2442 9.84677C62.0823 9.91129 61.9812 10.1008 61.9407 10.4153C61.8921 10.8024 61.8679 11.2782 61.8679 11.8427C61.8679 12.7621 61.9973 13.4234 62.2563 13.8266C62.3453 13.9556 62.5557 14.121 62.8875 14.3226C63.2273 14.5161 63.3973 14.8347 63.3973 15.2782C63.3973 15.8427 63.0048 16.2742 62.2199 16.5726C61.4349 16.871 60.3142 17.0202 58.8576 17.0202C57.5305 17.0202 56.4462 16.8831 55.6046 16.6089C55.2405 16.4879 54.9532 16.3185 54.7428 16.1008C54.5405 15.875 54.4394 15.629 54.4394 15.3629C54.4394 15.0968 54.5041 14.8911 54.6336 14.746C54.763 14.6008 55.0463 14.4153 55.4832 14.1895C55.7098 14.0766 55.8676 13.9315 55.9566 13.754C56.0537 13.5766 56.1266 13.2782 56.1751 12.8589C56.2965 11.9153 56.3572 10.6815 56.3572 9.15726C56.3572 8.875 56.3531 8.54032 56.345 8.15323C56.3127 6.21774 56.2965 5.1129 56.2965 4.83871C56.3046 4.14516 56.2439 3.68952 56.1144 3.47177C55.993 3.24597 55.6653 3 55.1312 2.73387C54.7752 2.56452 54.5972 2.31048 54.5972 1.97177C54.5972 1.15726 55.3902 0.592742 56.9762 0.278226C57.8987 0.0927419 58.8455 0 59.8165 0Z" fill="white"/>
<path d="M82.0171 4.71774C83.498 4.71774 84.7967 5.10081 85.9134 5.86694C86.7146 6.41532 87.3579 7.12903 87.8434 8.00806C88.3451 8.92742 88.596 9.8871 88.596 10.8871C88.596 12.6371 87.7908 14.125 86.1805 15.3508C84.643 16.5202 82.883 17.1048 80.9004 17.1048C78.9664 17.1048 77.4006 16.5565 76.203 15.4597C75.0377 14.3952 74.4551 13.0081 74.4551 11.2984C74.4551 9.39516 75.1672 7.83871 76.5914 6.62903C78.0803 5.35484 79.8889 4.71774 82.0171 4.71774ZM81.0461 7.5121C80.69 7.5121 80.4027 7.64516 80.1843 7.91129C79.9739 8.16935 79.8687 8.51613 79.8687 8.95161C79.8687 9.43548 79.9577 10.0968 80.1357 10.9355C80.3218 11.7661 80.5403 12.504 80.7912 13.1492C81.042 13.8105 81.4507 14.1411 82.0171 14.1411C82.7373 14.1411 83.0974 13.6855 83.0974 12.7742C83.0974 12.0968 83.0043 11.3266 82.8182 10.4637C82.6402 9.60081 82.4217 8.89919 82.1628 8.35887C81.8957 7.81048 81.5235 7.52823 81.0461 7.5121Z" fill="white"/>
<path d="M96.3279 7.89919V11.9879C96.3279 12.4718 96.4453 12.8669 96.6799 13.1734C96.9227 13.4798 97.2302 13.6331 97.6024 13.6331C97.918 13.6331 98.3348 13.4879 98.8526 13.1976C98.974 13.125 99.0954 13.0887 99.2168 13.0887C99.411 13.0887 99.589 13.2056 99.7509 13.4395C99.9127 13.6734 99.9936 13.9274 99.9936 14.2016C99.9936 14.7016 99.7185 15.1815 99.1682 15.6411C98.0192 16.6169 96.6273 17.1048 94.9927 17.1048C93.698 17.1048 92.6582 16.7419 91.8732 16.0161C91.0883 15.2823 90.6958 14.3185 90.6958 13.125V7.53629C90.6958 7.35081 90.6716 7.2379 90.623 7.19758C90.5826 7.14919 90.4693 7.125 90.2832 7.125H89.0329C88.7983 7.125 88.6486 7.08871 88.5838 7.01613C88.5191 6.93548 88.4867 6.75403 88.4867 6.47177V5.93952C88.4948 5.69758 88.5879 5.52016 88.7659 5.40726L94.3251 1.92339C94.4627 1.85081 94.6326 1.81452 94.8349 1.81452H95.8181C96.0204 1.81452 96.1539 1.8629 96.2187 1.95968C96.2915 2.04839 96.3279 2.22984 96.3279 2.50403V4.1371C96.3279 4.37903 96.3643 4.53629 96.4372 4.60887C96.5181 4.68145 96.684 4.71774 96.9348 4.71774H99.1804C99.4798 4.71774 99.674 4.77419 99.763 4.8871C99.852 4.99194 99.8965 5.22177 99.8965 5.57661V6.29032C99.8965 6.67742 99.8399 6.94758 99.7266 7.10081C99.6133 7.24597 99.407 7.31855 99.1075 7.31855H96.9106C96.684 7.31855 96.5302 7.35887 96.4493 7.43952C96.3684 7.52016 96.3279 7.67339 96.3279 7.89919Z" fill="white"/>
<path d="M111.67 11.3589H105.966C105.715 11.3589 105.589 11.4677 105.589 11.6855C105.589 12.2097 105.873 12.7056 106.439 13.1734C107.013 13.6331 107.628 13.8629 108.284 13.8629C108.672 13.8629 109.101 13.7903 109.571 13.6452C110.048 13.4919 110.44 13.3065 110.748 13.0887C111.023 12.8952 111.242 12.7984 111.403 12.7984C111.614 12.7984 111.82 12.9274 112.022 13.1855C112.225 13.4435 112.326 13.7097 112.326 13.9839C112.326 14.5645 111.962 15.125 111.234 15.6653C109.947 16.625 108.462 17.1048 106.779 17.1048C105.079 17.1048 103.655 16.6129 102.506 15.629C101.948 15.1452 101.487 14.5605 101.122 13.875C100.645 12.9637 100.406 12.004 100.406 10.996C100.406 9.64113 100.819 8.42339 101.644 7.34274C102.357 6.40726 103.263 5.70968 104.363 5.25C105.189 4.90323 106.083 4.72984 107.046 4.72984C108.583 4.72984 109.89 5.16532 110.966 6.03629C111.509 6.47177 111.946 6.9879 112.277 7.58468C112.658 8.2621 112.848 8.92339 112.848 9.56855C112.848 10.0927 112.739 10.5242 112.52 10.8629C112.302 11.1935 112.018 11.3589 111.67 11.3589ZM106.281 9.09677H107.507C108.025 9.09677 108.284 8.85887 108.284 8.38306C108.284 7.94758 108.159 7.59274 107.908 7.31855C107.657 7.04435 107.329 6.90726 106.924 6.90726C106.471 6.90726 106.115 7.08468 105.856 7.43952C105.614 7.77016 105.492 8.10484 105.492 8.44355C105.492 8.68548 105.549 8.85484 105.662 8.95161C105.783 9.04839 105.99 9.09677 106.281 9.09677Z" fill="white"/>
<path d="M120.568 7.18548V11.0685C120.568 12.7863 120.592 13.7863 120.641 14.0685C120.697 14.3508 120.899 14.5685 121.247 14.7218C121.547 14.8508 121.745 14.9718 121.842 15.0847C121.947 15.1976 122 15.3589 122 15.5685C122 15.8347 121.903 16.0766 121.709 16.2944C121.523 16.5121 121.272 16.6653 120.956 16.754C120.373 16.9315 119.39 17.0202 118.007 17.0202C116.445 17.0202 115.348 16.9032 114.717 16.6694C114.426 16.5645 114.187 16.4032 114.001 16.1855C113.815 15.9597 113.722 15.7258 113.722 15.4839C113.722 15.2903 113.77 15.1411 113.867 15.0363C113.973 14.9315 114.195 14.8065 114.535 14.6613C114.851 14.5242 115.045 14.1492 115.118 13.5363C115.247 12.4879 115.312 10.996 115.312 9.06048C115.312 7.09274 115.255 5.82661 115.142 5.2621C115.029 4.69758 114.745 4.27823 114.292 4.00403C113.952 3.81048 113.718 3.62903 113.588 3.45968C113.467 3.28226 113.406 3.06855 113.406 2.81855C113.406 2.42339 113.596 2.08065 113.977 1.79032C114.357 1.49194 114.964 1.21774 115.797 0.967742C116.356 0.798387 117.08 0.637097 117.97 0.483871C118.86 0.330645 119.508 0.254032 119.912 0.254032C120.552 0.254032 120.871 0.649194 120.871 1.43952C120.871 1.69758 120.831 2.29032 120.75 3.21774C120.645 4.66129 120.584 5.98387 120.568 7.18548Z" fill="white"/>
</svg>
